<svg width="30" height="30" viewBox="0 0 30 30" fill="none" xmlns="http://www.w3.org/2000/svg">
<rect width="30" height="30" rx="6" fill="white"/>
<path d="M20.4903 14.3357C20.1594 13.652 19.6784 13.0384 19.0773 12.5331L18.5812 12.1153C18.5644 12.1015 18.5441 12.0917 18.5222 12.0868C18.5003 12.0819 18.4774 12.082 18.4555 12.0871C18.4336 12.0922 18.4134 12.1021 18.3967 12.1161C18.38 12.13 18.3673 12.1475 18.3596 12.167L18.1381 12.7506C18 13.1168 17.746 13.4908 17.3864 13.8585C17.3625 13.882 17.3352 13.8882 17.3165 13.8898C17.2977 13.8913 17.2687 13.8882 17.2432 13.8663C17.2193 13.8475 17.2074 13.8194 17.2091 13.7912C17.2721 12.8492 16.9653 11.7867 16.2937 10.6304C15.7381 9.66959 14.9659 8.92007 14.0011 8.39743L13.2972 8.01719C13.2051 7.96712 13.0875 8.03284 13.0926 8.13142L13.1301 8.88251C13.1557 9.39576 13.0909 9.84954 12.9375 10.2267C12.75 10.6883 12.4807 11.117 12.1364 11.5019C11.8967 11.7695 11.6252 12.0114 11.3267 12.2233C10.6079 12.7305 10.0234 13.3805 9.61704 14.1245C9.21166 14.875 9.00049 15.7013 9 16.5389C9 17.2775 9.15852 17.9926 9.47216 18.667C9.775 19.3164 10.212 19.9057 10.7591 20.4024C11.3114 20.9031 11.9523 21.2974 12.6665 21.5713C13.4062 21.856 14.1903 22 15 22C15.8097 22 16.5937 21.856 17.3335 21.5728C18.046 21.3006 18.6938 20.9036 19.2409 20.4039C19.7932 19.9032 20.2261 19.318 20.5278 18.6686C20.841 17.996 21.0016 17.2719 21 16.5405C21 15.7769 20.8295 15.0352 20.4903 14.3357Z" fill="#1B1B1B"/>
</svg>
