<svg width="16" height="16" viewBox="0 0 16 16" fill="none" xmlns="http://www.w3.org/2000/svg">
<rect width="16" height="16" rx="2" fill="#D0E4FB"/>
<path d="M10.823 7.52748L8.68364 5.39131C8.62914 5.33649 8.55728 5.30233 8.48037 5.29467L5.36463 5.0014C5.31582 4.99691 5.26662 5.00325 5.22054 5.01995C5.17446 5.03666 5.13263 5.06332 5.09804 5.09804C5.06332 5.13264 5.03665 5.17447 5.01995 5.22055C5.00324 5.26664 4.99691 5.31584 5.0014 5.36465L5.29465 8.48059C5.30231 8.55751 5.33647 8.62937 5.39128 8.68387L7.52732 10.8234C7.64188 10.9364 7.79628 10.9998 7.95719 11C8.11709 10.9997 8.27039 10.9362 8.38373 10.8234L10.823 8.38394C10.9364 8.27025 11 8.11626 11 7.95571C11 7.79517 10.9364 7.64117 10.823 7.52748ZM7.52065 7.52748C7.45077 7.59745 7.36171 7.64512 7.26473 7.66446C7.16775 7.6838 7.06722 7.67393 6.97584 7.63612C6.88447 7.5983 6.80637 7.53423 6.75142 7.45201C6.69646 7.36979 6.66713 7.27312 6.66713 7.17423C6.66713 7.07533 6.69646 6.97866 6.75142 6.89644C6.80637 6.81422 6.88447 6.75015 6.97584 6.71233C7.06722 6.67452 7.16775 6.66466 7.26473 6.68399C7.36171 6.70333 7.45077 6.751 7.52065 6.82098C7.61304 6.914 7.66489 7.03979 7.66489 7.17089C7.66489 7.302 7.61304 7.42779 7.52065 7.52081V7.52748Z" fill="black"/>
</svg>
